<svg xmlns="http://www.w3.org/2000/svg" xmlns:xlink="http://www.w3.org/1999/xlink" contentStyleType="text/css" data-diagram-type="CLASS" height="354px" preserveAspectRatio="none" style="width:360px;height:354px;background:#FFFFFF;" version="1.1" viewBox="0 0 360 354" width="360px" zoomAndPan="magnify"><?plantuml 1.2026.3beta6?><defs/><g><!--entity 43riograndedosul--><g class="entity" data-qualified-name="43riograndedosul" data-source-line="1" id="ent0002"><path d="M9.5,7 L50.5,7 A3.75,3.75 0 0 1 53,9.5 L60,28 L344.5244,28 A2.5,2.5 0 0 1 347.0244,30.5 L347.0244,338.6563 A2.5,2.5 0 0 1 344.5244,341.1563 L9.5,341.1563 A2.5,2.5 0 0 1 7,338.6563 L7,9.5 A2.5,2.5 0 0 1 9.5,7" fill="#F1F1F1" style="stroke:#181818;stroke-width:0.5;"/><line style="stroke:#181818;stroke-width:0.5;" x1="7" x2="60" y1="28" y2="28"/><line style="stroke:#181818;stroke-width:1;" x1="8" x2="346.0244" y1="35" y2="35"/><text fill="#000000" font-family="sans-serif" font-size="14" lengthAdjust="spacing" textLength="64.7295" x="17" y="51.9951">Esquema</text><text fill="#000000" font-family="sans-serif" font-size="14" font-weight="700" lengthAdjust="spacing" textLength="166.209" x="86.1797" y="51.9951">43-rio_grande_do_sul</text><text fill="#000000" font-family="sans-serif" font-size="14" lengthAdjust="spacing" textLength="42.9297" x="17" y="82.292">Grupo</text><text fill="#000000" font-family="sans-serif" font-size="14" font-weight="700" lengthAdjust="spacing" textLength="24.8486" x="64.3799" y="82.292">Sul</text><line style="stroke:#181818;stroke-width:1;" x1="8" x2="172.0122" y1="64.2969" y2="64.2969"/><line style="stroke:#181818;stroke-width:1;" x1="8" x2="172.0122" y1="66.2969" y2="66.2969"/><line style="stroke:#181818;stroke-width:1;" x1="172.0122" x2="182.0122" y1="63.7969" y2="63.7969"/><line style="stroke:#181818;stroke-width:1;" x1="172.0122" x2="182.0122" y1="65.7969" y2="65.7969"/><line style="stroke:#181818;stroke-width:1;" x1="182.0122" x2="346.0244" y1="64.2969" y2="64.2969"/><line style="stroke:#181818;stroke-width:1;" x1="182.0122" x2="346.0244" y1="66.2969" y2="66.2969"/><ellipse cx="22.5" cy="108.3906" fill="#000000" rx="2.5" ry="2.5"/><text fill="#000000" font-family="sans-serif" font-size="14" font-weight="700" lengthAdjust="spacing" textLength="68.4141" x="29" y="112.5889">h788986</text><text fill="#000000" font-family="sans-serif" font-size="14" lengthAdjust="spacing" textLength="200.5732" x="101.8643" y="112.5889">- Igor Soares Lima Da Cunha</text><ellipse cx="22.5" cy="124.6875" fill="#000000" rx="2.5" ry="2.5"/><text fill="#000000" font-family="sans-serif" font-size="14" font-weight="700" lengthAdjust="spacing" textLength="58.8096" x="29" y="128.8857">h77gii5</text><text fill="#000000" font-family="sans-serif" font-size="14" lengthAdjust="spacing" textLength="190.1553" x="92.2598" y="128.8857">- Jessica Cristina De S Silva</text><ellipse cx="22.5" cy="140.9844" fill="#000000" rx="2.5" ry="2.5"/><text fill="#000000" font-family="sans-serif" font-size="14" font-weight="700" lengthAdjust="spacing" textLength="59.5957" x="29" y="145.1826">f3648i0</text><text fill="#000000" font-family="sans-serif" font-size="14" lengthAdjust="spacing" textLength="227.9785" x="93.0459" y="145.1826">- Maysa Kelly Dos Santos Freitas</text><line style="stroke:#181818;stroke-width:1;" x1="8" x2="172.0122" y1="94.5938" y2="94.5938"/><line style="stroke:#181818;stroke-width:1;" x1="8" x2="172.0122" y1="96.5938" y2="96.5938"/><line style="stroke:#181818;stroke-width:1;" x1="172.0122" x2="182.0122" y1="94.0938" y2="94.0938"/><line style="stroke:#181818;stroke-width:1;" x1="172.0122" x2="182.0122" y1="96.0938" y2="96.0938"/><line style="stroke:#181818;stroke-width:1;" x1="182.0122" x2="346.0244" y1="94.5938" y2="94.5938"/><line style="stroke:#181818;stroke-width:1;" x1="182.0122" x2="346.0244" y1="96.5938" y2="96.5938"/><line style="stroke:#181818;stroke-width:1;" x1="8" x2="346.0244" y1="152.4844" y2="152.4844"/><text fill="#000000" font-family="sans-serif" font-size="14" lengthAdjust="spacing" textLength="139.2686" x="17" y="169.4795">Privil&#233;gios SQL-DML</text><line style="stroke:#181818;stroke-width:1;" x1="8" x2="346.0244" y1="176.7813" y2="176.7813"/><ellipse cx="22.5" cy="189.5781" fill="#000000" rx="2.5" ry="2.5"/><text fill="#000000" font-family="sans-serif" font-size="14" lengthAdjust="spacing" textLength="90.248" x="29" y="193.7764">Ler (SELECT)</text><ellipse cx="22.5" cy="205.875" fill="#000000" rx="2.5" ry="2.5"/><text fill="#000000" font-family="sans-serif" font-size="14" lengthAdjust="spacing" textLength="110.2979" x="29" y="210.0732">Inserir (INSERT)</text><ellipse cx="22.5" cy="222.1719" fill="#000000" rx="2.5" ry="2.5"/><text fill="#000000" font-family="sans-serif" font-size="14" lengthAdjust="spacing" textLength="119.4785" x="29" y="226.3701">Alterar (UPDATE)</text><ellipse cx="22.5" cy="238.4688" fill="#000000" rx="2.5" ry="2.5"/><text fill="#000000" font-family="sans-serif" font-size="14" lengthAdjust="spacing" textLength="132.2412" x="29" y="242.667">Remover (DELETE)</text><line style="stroke:#181818;stroke-width:1;" x1="8" x2="346.0244" y1="249.9688" y2="249.9688"/><text fill="#000000" font-family="sans-serif" font-size="14" lengthAdjust="spacing" textLength="137.9697" x="17" y="266.9639">Privil&#233;gios SQL-DDL</text><line style="stroke:#181818;stroke-width:1;" x1="8" x2="346.0244" y1="274.2656" y2="274.2656"/><ellipse cx="22.5" cy="287.0625" fill="#000000" rx="2.5" ry="2.5"/><text fill="#000000" font-family="sans-serif" font-size="14" lengthAdjust="spacing" textLength="152.9404" x="29" y="291.2607">Criar tabela (CREATE)</text><ellipse cx="22.5" cy="303.3594" fill="#000000" rx="2.5" ry="2.5"/><text fill="#000000" font-family="sans-serif" font-size="14" lengthAdjust="spacing" textLength="156.0234" x="29" y="307.5576">Alterar tabela (ALTER)</text><ellipse cx="22.5" cy="319.6563" fill="#000000" rx="2.5" ry="2.5"/><text fill="#000000" font-family="sans-serif" font-size="14" lengthAdjust="spacing" textLength="154.0957" x="29" y="323.8545">Apagar tabela (DROP)</text></g><?plantuml-src TP31Ji9048RlVOev0acZ2GWrGHBINGrQ5BjuCgOPx58cMRgusvBmI3w7B-OKYk7YNZRxpJV_P7PjJQuT3FgERE6mp7LkVMtWFGZv1D9_rNgBC5vD1lsGdUmaPRdDM0lksXCyk7fd6qrTqbv3DgCekes6uwlL14AO5TQ1ikYqXuGuMY34TRd1ipmgY6vQ-L5xJvyiEF8LbInhKA38x5jztHyE8hfkzJaUFCAJDkO0mdfGM5PytJjD5VhJHWj7Up8_tmKrmciIYdboglGWuP_eA9d8UDdbvwpqsX6ZsREIwH5DJQKTCdfRYEbIDYZLMxjl6WKtDkYVCU9l36_34HMkj47enAbiayxXvyeqMShqMDXXSS55-hBe1X-_?></g></svg>