<svg xmlns="http://www.w3.org/2000/svg" xmlns:xlink="http://www.w3.org/1999/xlink" contentStyleType="text/css" data-diagram-type="DESCRIPTION" height="1064px" preserveAspectRatio="none" style="width:796px;height:1064px;background:#FFFFFF;" version="1.1" viewBox="0 0 796 1064" width="796px" zoomAndPan="magnify"><?plantuml 1.2026.3beta6?><defs/><g><g class="title" data-source-line="5"><text fill="#000000" font-family="sans-serif" font-size="14" font-weight="700" lengthAdjust="spacing" textLength="476.9775" x="156.4586" y="22.9951">Cliente, Servidor e Banco de Dados para Arquitetura M.V.C.:</text></g><!--cluster \n\nNa l?gica VIEW\nentra o CLIENTE\n\n--><g class="cluster" data-qualified-name=".n.nNa l.gica VIEW.nentra o CLIENTE.n.n" data-source-line="7" id="ent0002"><rect fill="none" height="323.96" rx="2.5" ry="2.5" style="stroke:#181818;stroke-width:1;" width="256" x="48.84" y="44.2969"/><path d="M185.5099,44.2969 L185.5099,135.0781 L175.5099,145.0781 L48.84,145.0781" fill="none" style="stroke:#181818;stroke-width:1;"/><text fill="#000000" font-family="sans-serif" font-size="14" font-weight="700" lengthAdjust="spacing" textLength="4.874" x="112.7379" y="58.292">&#160;</text><text fill="#000000" font-family="sans-serif" font-size="14" font-weight="700" lengthAdjust="spacing" textLength="4.874" x="112.7379" y="74.5889">&#160;</text><text fill="#000000" font-family="sans-serif" font-size="14" font-weight="700" lengthAdjust="spacing" textLength="118.9453" x="55.7023" y="90.8857">Na l&#243;gica VIEW</text><text fill="#000000" font-family="sans-serif" font-size="14" font-weight="700" lengthAdjust="spacing" textLength="126.6699" x="51.84" y="107.1826">entra o CLIENTE</text><text fill="#000000" font-family="sans-serif" font-size="14" font-weight="700" lengthAdjust="spacing" textLength="4.874" x="112.7379" y="123.4795">&#160;</text><text fill="#000000" font-family="sans-serif" font-size="14" font-weight="700" lengthAdjust="spacing" textLength="4.874" x="112.7379" y="139.7764">&#160;</text></g><!--cluster \n\nNa l?gica CONTROLLER\n entra o SERVIDOR\n\n--><g class="cluster" data-qualified-name=".n.nNa l.gica CONTROLLER.n entra o SERVIDOR.n.n" data-source-line="12" id="ent0007"><rect fill="none" height="323.96" rx="2.5" ry="2.5" style="stroke:#181818;stroke-width:1;" width="276" x="298.84" y="392.2569"/><path d="M491.0451,392.2569 L491.0451,483.0381 L481.0451,493.0381 L298.84,493.0381" fill="none" style="stroke:#181818;stroke-width:1;"/><text fill="#000000" font-family="sans-serif" font-size="14" font-weight="700" lengthAdjust="spacing" textLength="4.874" x="390.5055" y="406.252">&#160;</text><text fill="#000000" font-family="sans-serif" font-size="14" font-weight="700" lengthAdjust="spacing" textLength="4.874" x="390.5055" y="422.5489">&#160;</text><text fill="#000000" font-family="sans-serif" font-size="14" font-weight="700" lengthAdjust="spacing" textLength="182.2051" x="301.84" y="438.8457">Na l&#243;gica CONTROLLER</text><text fill="#000000" font-family="sans-serif" font-size="14" font-weight="700" lengthAdjust="spacing" textLength="142.6455" x="324.0568" y="455.1426">entra o SERVIDOR</text><text fill="#000000" font-family="sans-serif" font-size="14" font-weight="700" lengthAdjust="spacing" textLength="4.874" x="390.5055" y="471.4395">&#160;</text><text fill="#000000" font-family="sans-serif" font-size="14" font-weight="700" lengthAdjust="spacing" textLength="4.874" x="390.5055" y="487.7364">&#160;</text></g><!--cluster \n\nNa l?gica MODEL\n entra o Banco de dados\n\n --><g class="cluster" data-qualified-name=".n.nNa l.gica MODEL.n entra o Banco de dados.n.n " data-source-line="17" id="ent0012"><rect fill="none" height="309.99" rx="2.5" ry="2.5" style="stroke:#181818;stroke-width:1;" width="298" x="287.84" y="740.2169"/><path d="M489.2941,740.2169 L489.2941,830.9981 L479.2941,840.9981 L287.84,840.9981" fill="none" style="stroke:#181818;stroke-width:1;"/><text fill="#000000" font-family="sans-serif" font-size="14" font-weight="700" lengthAdjust="spacing" textLength="4.874" x="384.13" y="754.212">&#160;</text><text fill="#000000" font-family="sans-serif" font-size="14" font-weight="700" lengthAdjust="spacing" textLength="4.874" x="384.13" y="770.5089">&#160;</text><text fill="#000000" font-family="sans-serif" font-size="14" font-weight="700" lengthAdjust="spacing" textLength="133.834" x="319.6501" y="786.8057">Na l&#243;gica MODEL</text><text fill="#000000" font-family="sans-serif" font-size="14" font-weight="700" lengthAdjust="spacing" textLength="186.5801" x="295.714" y="803.1026">entra o Banco de dados</text><text fill="#000000" font-family="sans-serif" font-size="14" font-weight="700" lengthAdjust="spacing" textLength="4.874" x="384.13" y="819.3995">&#160;</text><text fill="#000000" font-family="sans-serif" font-size="14" font-weight="700" lengthAdjust="spacing" textLength="4.874" x="384.13" y="835.6964">&#160;</text></g><!--entity View--><g class="entity" data-qualified-name=".n.nNa l.gica VIEW.nentra o CLIENTE.n.n.View" data-source-line="8" id="ent0003"><rect fill="#F1F1F1" height="46.2969" rx="2.5" ry="2.5" style="stroke:#181818;stroke-width:0.5;" width="223.3604" x="65.16" y="160.2969"/><rect fill="#F1F1F1" height="10" style="stroke:#181818;stroke-width:0.5;" width="15" x="268.5204" y="165.2969"/><rect fill="#F1F1F1" height="2" style="stroke:#181818;stroke-width:0.5;" width="4" x="266.5204" y="167.2969"/><rect fill="#F1F1F1" height="2" style="stroke:#181818;stroke-width:0.5;" width="4" x="266.5204" y="171.2969"/><text fill="#000000" font-family="sans-serif" font-size="14" lengthAdjust="spacing" textLength="183.3604" x="80.16" y="193.292">Cliente HTML + JavaScript</text></g><g class="entity" data-qualified-name=".n.nNa l.gica VIEW.nentra o CLIENTE.n.n.GMN4" data-source-line="9" id="ent0005"><path d="M74.2,266.5869 L74.2,352.2509 A0,0 0 0 0 74.2,352.2509 L259.4837,352.2509 A0,0 0 0 0 259.4837,352.2509 L259.4837,276.5869 L249.4837,266.5869 L170.84,266.5869 L166.84,206.8469 L162.84,266.5869 L74.2,266.5869 A0,0 0 0 0 74.2,266.5869" fill="#FEFFDD" style="stroke:#181818;stroke-width:0.5;"/><path d="M249.4837,266.5869 L249.4837,276.5869 L259.4837,276.5869 L249.4837,266.5869" fill="#FEFFDD" style="stroke:#181818;stroke-width:0.5;"/><text fill="#000000" font-family="sans-serif" font-size="13" lengthAdjust="spacing" textLength="160.1514" x="80.2" y="283.6538">Tela de Interfaceamento</text><text fill="#000000" font-family="sans-serif" font-size="13" lengthAdjust="spacing" textLength="4.1323" x="80.2" y="298.7866">&#160;</text><text fill="#000000" font-family="sans-serif" font-size="13" lengthAdjust="spacing" textLength="92.1553" x="80.2" y="313.9194">com usu&#225;rio e</text><text fill="#000000" font-family="sans-serif" font-size="13" lengthAdjust="spacing" textLength="4.1323" x="80.2" y="329.0522">&#160;</text><text fill="#000000" font-family="sans-serif" font-size="13" lengthAdjust="spacing" textLength="128.8066" x="80.2" y="344.185">exibi&#231;&#227;o dos dados.</text></g><!--entity Controller--><g class="entity" data-qualified-name=".n.nNa l.gica CONTROLLER.n entra o SERVIDOR.n.n.Controller" data-source-line="13" id="ent0008"><rect fill="#F1F1F1" height="46.2969" rx="2.5" ry="2.5" style="stroke:#181818;stroke-width:0.5;" width="244.3809" x="314.65" y="653.9169"/><rect fill="#F1F1F1" height="10" style="stroke:#181818;stroke-width:0.5;" width="15" x="539.0309" y="658.9169"/><rect fill="#F1F1F1" height="2" style="stroke:#181818;stroke-width:0.5;" width="4" x="537.0309" y="660.9169"/><rect fill="#F1F1F1" height="2" style="stroke:#181818;stroke-width:0.5;" width="4" x="537.0309" y="664.9169"/><text fill="#000000" font-family="sans-serif" font-size="14" lengthAdjust="spacing" textLength="204.3809" x="329.65" y="686.912">Servidor de aplica&#231;&#227;o Python</text></g><g class="entity" data-qualified-name=".n.nNa l.gica CONTROLLER.n entra o SERVIDOR.n.n.GMN9" data-source-line="14" id="ent0010"><path d="M365.5,508.2569 L365.5,593.9209 A0,0 0 0 0 365.5,593.9209 L449.84,593.9209 L453.84,653.6869 L457.84,593.9209 L542.1699,593.9209 A0,0 0 0 0 542.1699,593.9209 L542.1699,518.2569 L532.1699,508.2569 L365.5,508.2569 A0,0 0 0 0 365.5,508.2569" fill="#FEFFDD" style="stroke:#181818;stroke-width:0.5;"/><path d="M532.1699,508.2569 L532.1699,518.2569 L542.1699,518.2569 L532.1699,508.2569" fill="#FEFFDD" style="stroke:#181818;stroke-width:0.5;"/><text fill="#000000" font-family="sans-serif" font-size="13" lengthAdjust="spacing" textLength="124.1665" x="371.5" y="525.3238">L&#243;gica de controle,</text><text fill="#000000" font-family="sans-serif" font-size="13" lengthAdjust="spacing" textLength="4.1323" x="371.5" y="540.4566">&#160;</text><text fill="#000000" font-family="sans-serif" font-size="13" lengthAdjust="spacing" textLength="151.5376" x="371.5" y="555.5894">Rotas e Intermedia&#231;&#227;o:</text><text fill="#000000" font-family="sans-serif" font-size="13" lengthAdjust="spacing" textLength="4.1323" x="371.5" y="570.7222">&#160;</text><text fill="#000000" font-family="sans-serif" font-size="13" lengthAdjust="spacing" textLength="123.0112" x="371.5" y="585.855">Exposi&#231;&#227;o da A.P.I.</text></g><!--entity Model--><g class="entity" data-qualified-name=".n.nNa l.gica MODEL.n entra o Banco de dados.n.n .Model" data-source-line="18" id="ent0013"><rect fill="#F1F1F1" height="62.5938" rx="2.5" ry="2.5" style="stroke:#181818;stroke-width:0.5;" width="266.4268" x="303.63" y="856.2169"/><rect fill="#F1F1F1" height="10" style="stroke:#181818;stroke-width:0.5;" width="15" x="550.0568" y="861.2169"/><rect fill="#F1F1F1" height="2" style="stroke:#181818;stroke-width:0.5;" width="4" x="548.0568" y="863.2169"/><rect fill="#F1F1F1" height="2" style="stroke:#181818;stroke-width:0.5;" width="4" x="548.0568" y="867.2169"/><text fill="#000000" font-family="sans-serif" font-size="14" lengthAdjust="spacing" textLength="226.4268" x="318.63" y="889.212">O seu Banco de Dados Preferido</text><text fill="#000000" font-family="sans-serif" font-size="14" lengthAdjust="spacing" textLength="220.2402" x="323.0802" y="905.5089">PostgreSQL, MySQL, SQLServer</text></g><g class="entity" data-qualified-name=".n.nNa l.gica MODEL.n entra o Banco de dados.n.n .GMN14" data-source-line="19" id="ent0015"><path d="M337.86,978.8069 L337.86,1034.2053 A0,0 0 0 0 337.86,1034.2053 L535.8136,1034.2053 A0,0 0 0 0 535.8136,1034.2053 L535.8136,988.8069 L525.8136,978.8069 L440.84,978.8069 L436.84,919.0869 L432.84,978.8069 L337.86,978.8069 A0,0 0 0 0 337.86,978.8069" fill="#FEFFDD" style="stroke:#181818;stroke-width:0.5;"/><path d="M525.8136,978.8069 L525.8136,988.8069 L535.8136,988.8069 L525.8136,978.8069" fill="#FEFFDD" style="stroke:#181818;stroke-width:0.5;"/><text fill="#000000" font-family="sans-serif" font-size="13" lengthAdjust="spacing" textLength="154.2417" x="343.86" y="995.8738">Persist&#234;ncia de dados e</text><text fill="#000000" font-family="sans-serif" font-size="13" lengthAdjust="spacing" textLength="4.1323" x="343.86" y="1011.0066">&#160;</text><text fill="#000000" font-family="sans-serif" font-size="13" lengthAdjust="spacing" textLength="176.9536" x="343.86" y="1026.1394">regras de neg&#243;cio da base.</text></g><!--link View to Controller--><g class="link" data-entity-1="ent0003" data-entity-2="ent0008" data-link-type="dependency" data-source-line="23" id="lnk17"><path d="M274,212.9269 C274,311.0469 274,677.2069 274,677.2069 C274,677.2069 285.12,677.2069 308.25,677.2069" fill="none" id="View-Controller" style="stroke:#181818;stroke-width:1;"/><polygon fill="#181818" points="274,206.9269,270,215.9269,274,211.9269,278,215.9269,274,206.9269" style="stroke:#181818;stroke-width:1;"/><polygon fill="#181818" points="314.25,677.2069,305.25,673.2069,309.25,677.2069,305.25,681.2069,314.25,677.2069" style="stroke:#181818;stroke-width:1;"/><text fill="#000000" font-family="sans-serif" font-size="17" font-weight="700" lengthAdjust="spacing" textLength="266.7871" x="7" y="457.9667">&gt; Tela WEB - consultas http</text></g><!--link Controller to Model--><g class="link" data-entity-1="ent0008" data-entity-2="ent0013" data-link-type="dependency" data-source-line="24" id="lnk18"><path d="M436.84,706.3869 C436.84,744.2769 436.84,807.2269 436.84,849.8769" fill="none" id="Controller-Model" style="stroke:#181818;stroke-width:1;"/><polygon fill="#181818" points="436.84,700.3869,432.84,709.3869,436.84,705.3869,440.84,709.3869,436.84,700.3869" style="stroke:#181818;stroke-width:1;"/><polygon fill="#181818" points="436.84,855.8769,440.84,846.8769,436.84,850.8769,432.84,846.8769,436.84,855.8769" style="stroke:#181818;stroke-width:1;"/><text fill="#000000" font-family="sans-serif" font-size="17" font-weight="700" lengthAdjust="spacing" textLength="343.0547" x="437.84" y="773.9167">&gt; Consultas SQL (tradicionalmente)</text></g><?plantuml-src VP9DRjim48NtEiKWgnHrT00Z2T380g92ibJPS1Pr5xGqLeZGf4fIQOoYXocwAD1jZg2BTKZ9ZbEqvK8_m-6R-TxGgXQiWesoLksWvXehovKCp0ENBTDi1u9BjFiMGMbxhqusMbOzi0ONTYyGjXJ18B3SqayaE4gB4rYWVkIrqe1mmsIbe4QOiLePS1BmJd_kk4NRqNSMhi8ed0R1A0jdQxcMSmQYVsvunM2Ln7ThIRgKh21AatY-Z5tE6NmDWDR7iIpSBhCKti9xziWMbUQj_GJCm8hZ5vyd5UMCm6hhup259Ghcsaj8GMzPXSGZoHbNeQBCpdJzTyqLe8lW4z_m_cV_Wv28fdPCOV3jtzr7-NnPvcaQbsi91uX5NAwIMLw-eZXwHismLj3XeKwn9_kbHuaK2IWXKBy0MHeaqRni4LCw5YUbQeZZnDKgbIMLaNM7DHzAJ3ri_DGgSs2Z6OL5cFmNBSjdSNf2TPoqTyKbmn4k1uFTdtUXqBX5JSoKMIXZ6usB3-a4ihr_qSDvWjgpPwf6yRSv-Ws2Bb0RRcp_IrQS7TiOngQnqQH1GObD_rnnZxXX1ZrXuE_2i2ulQ5s_zlFgUhWcT_4DN3XBJIUSa_VMji59vgKxUUZdoekCcSG2vsHJpQcsPCBTCNpp6m00?></g></svg>