<svg xmlns="http://www.w3.org/2000/svg" xmlns:xlink="http://www.w3.org/1999/xlink" contentStyleType="text/css" data-diagram-type="CLASS" height="338px" preserveAspectRatio="none" style="width:732px;height:338px;background:#FFFFFF;" version="1.1" viewBox="0 0 732 338" width="732px" zoomAndPan="magnify"><?plantuml 1.2026.3beta6?><defs/><g><!--entity 21maranhao--><g class="entity" data-qualified-name="21maranhao" data-source-line="1" id="ent0002"><path d="M8.5,6 L49.5,6 A3.75,3.75 0 0 1 52,8.5 L59,27 L341.7607,27 A2.5,2.5 0 0 1 344.2607,29.5 L344.2607,321.3594 A2.5,2.5 0 0 1 341.7607,323.8594 L8.5,323.8594 A2.5,2.5 0 0 1 6,321.3594 L6,8.5 A2.5,2.5 0 0 1 8.5,6" fill="#F1F1F1" style="stroke:#181818;stroke-width:0.5;"/><line style="stroke:#181818;stroke-width:0.5;" x1="6" x2="59" y1="27" y2="27"/><line style="stroke:#181818;stroke-width:1;" x1="7" x2="343.2607" y1="34" y2="34"/><text fill="#000000" font-family="sans-serif" font-size="14" lengthAdjust="spacing" textLength="64.7295" x="16" y="50.9951">Esquema</text><text fill="#000000" font-family="sans-serif" font-size="14" font-weight="700" lengthAdjust="spacing" textLength="104.6787" x="85.1797" y="50.9951">21-maranhao</text><text fill="#000000" font-family="sans-serif" font-size="14" lengthAdjust="spacing" textLength="42.9297" x="16" y="81.292">Grupo</text><text fill="#000000" font-family="sans-serif" font-size="14" font-weight="700" lengthAdjust="spacing" textLength="72.2764" x="63.3799" y="81.292">Nordeste</text><line style="stroke:#181818;stroke-width:1;" x1="7" x2="170.1304" y1="63.2969" y2="63.2969"/><line style="stroke:#181818;stroke-width:1;" x1="7" x2="170.1304" y1="65.2969" y2="65.2969"/><line style="stroke:#181818;stroke-width:1;" x1="170.1304" x2="180.1304" y1="62.7969" y2="62.7969"/><line style="stroke:#181818;stroke-width:1;" x1="170.1304" x2="180.1304" y1="64.7969" y2="64.7969"/><line style="stroke:#181818;stroke-width:1;" x1="180.1304" x2="343.2607" y1="63.2969" y2="63.2969"/><line style="stroke:#181818;stroke-width:1;" x1="180.1304" x2="343.2607" y1="65.2969" y2="65.2969"/><ellipse cx="21.5" cy="107.3906" fill="#000000" rx="2.5" ry="2.5"/><text fill="#000000" font-family="sans-serif" font-size="14" font-weight="700" lengthAdjust="spacing" textLength="68.4141" x="28" y="111.5889">h756960</text><text fill="#000000" font-family="sans-serif" font-size="14" lengthAdjust="spacing" textLength="188.6309" x="100.8643" y="111.5889">- Heder Rodrigues Da Silva</text><ellipse cx="21.5" cy="123.6875" fill="#000000" rx="2.5" ry="2.5"/><text fill="#000000" font-family="sans-serif" font-size="14" font-weight="700" lengthAdjust="spacing" textLength="65.6318" x="28" y="127.8857">r8133g7</text><text fill="#000000" font-family="sans-serif" font-size="14" lengthAdjust="spacing" textLength="220.1787" x="98.082" y="127.8857">- &#205;talo Kevin Rodrigues Da Silva</text><line style="stroke:#181818;stroke-width:1;" x1="7" x2="170.1304" y1="93.5938" y2="93.5938"/><line style="stroke:#181818;stroke-width:1;" x1="7" x2="170.1304" y1="95.5938" y2="95.5938"/><line style="stroke:#181818;stroke-width:1;" x1="170.1304" x2="180.1304" y1="93.0938" y2="93.0938"/><line style="stroke:#181818;stroke-width:1;" x1="170.1304" x2="180.1304" y1="95.0938" y2="95.0938"/><line style="stroke:#181818;stroke-width:1;" x1="180.1304" x2="343.2607" y1="93.5938" y2="93.5938"/><line style="stroke:#181818;stroke-width:1;" x1="180.1304" x2="343.2607" y1="95.5938" y2="95.5938"/><line style="stroke:#181818;stroke-width:1;" x1="7" x2="343.2607" y1="135.1875" y2="135.1875"/><text fill="#000000" font-family="sans-serif" font-size="14" lengthAdjust="spacing" textLength="139.2686" x="16" y="152.1826">Privil&#233;gios SQL-DML</text><line style="stroke:#181818;stroke-width:1;" x1="7" x2="343.2607" y1="159.4844" y2="159.4844"/><ellipse cx="21.5" cy="172.2813" fill="#000000" rx="2.5" ry="2.5"/><text fill="#000000" font-family="sans-serif" font-size="14" lengthAdjust="spacing" textLength="90.248" x="28" y="176.4795">Ler (SELECT)</text><ellipse cx="21.5" cy="188.5781" fill="#000000" rx="2.5" ry="2.5"/><text fill="#000000" font-family="sans-serif" font-size="14" lengthAdjust="spacing" textLength="110.2979" x="28" y="192.7764">Inserir (INSERT)</text><ellipse cx="21.5" cy="204.875" fill="#000000" rx="2.5" ry="2.5"/><text fill="#000000" font-family="sans-serif" font-size="14" lengthAdjust="spacing" textLength="119.4785" x="28" y="209.0732">Alterar (UPDATE)</text><ellipse cx="21.5" cy="221.1719" fill="#000000" rx="2.5" ry="2.5"/><text fill="#000000" font-family="sans-serif" font-size="14" lengthAdjust="spacing" textLength="132.2412" x="28" y="225.3701">Remover (DELETE)</text><line style="stroke:#181818;stroke-width:1;" x1="7" x2="343.2607" y1="232.6719" y2="232.6719"/><text fill="#000000" font-family="sans-serif" font-size="14" lengthAdjust="spacing" textLength="137.9697" x="16" y="249.667">Privil&#233;gios SQL-DDL</text><line style="stroke:#181818;stroke-width:1;" x1="7" x2="343.2607" y1="256.9688" y2="256.9688"/><ellipse cx="21.5" cy="269.7656" fill="#000000" rx="2.5" ry="2.5"/><text fill="#000000" font-family="sans-serif" font-size="14" lengthAdjust="spacing" textLength="152.9404" x="28" y="273.9639">Criar tabela (CREATE)</text><ellipse cx="21.5" cy="286.0625" fill="#000000" rx="2.5" ry="2.5"/><text fill="#000000" font-family="sans-serif" font-size="14" lengthAdjust="spacing" textLength="156.0234" x="28" y="290.2607">Alterar tabela (ALTER)</text><ellipse cx="21.5" cy="302.3594" fill="#000000" rx="2.5" ry="2.5"/><text fill="#000000" font-family="sans-serif" font-size="14" lengthAdjust="spacing" textLength="154.0957" x="28" y="306.5576">Apagar tabela (DROP)</text></g><!--entity 22piaui--><g class="entity" data-qualified-name="22piaui" data-source-line="24" id="ent0003"><path d="M381.5,6 L422.5,6 A3.75,3.75 0 0 1 425,8.5 L432,27 L714.7607,27 A2.5,2.5 0 0 1 717.2607,29.5 L717.2607,321.3594 A2.5,2.5 0 0 1 714.7607,323.8594 L381.5,323.8594 A2.5,2.5 0 0 1 379,321.3594 L379,8.5 A2.5,2.5 0 0 1 381.5,6" fill="#F1F1F1" style="stroke:#181818;stroke-width:0.5;"/><line style="stroke:#181818;stroke-width:0.5;" x1="379" x2="432" y1="27" y2="27"/><line style="stroke:#181818;stroke-width:1;" x1="380" x2="716.2607" y1="34" y2="34"/><text fill="#000000" font-family="sans-serif" font-size="14" lengthAdjust="spacing" textLength="64.7295" x="389" y="50.9951">Esquema</text><text fill="#000000" font-family="sans-serif" font-size="14" font-weight="700" lengthAdjust="spacing" textLength="64.3262" x="458.1797" y="50.9951">22-piaui</text><text fill="#000000" font-family="sans-serif" font-size="14" lengthAdjust="spacing" textLength="42.9297" x="389" y="81.292">Grupo</text><text fill="#000000" font-family="sans-serif" font-size="14" font-weight="700" lengthAdjust="spacing" textLength="72.2764" x="436.3799" y="81.292">Nordeste</text><line style="stroke:#181818;stroke-width:1;" x1="380" x2="543.1304" y1="63.2969" y2="63.2969"/><line style="stroke:#181818;stroke-width:1;" x1="380" x2="543.1304" y1="65.2969" y2="65.2969"/><line style="stroke:#181818;stroke-width:1;" x1="543.1304" x2="553.1304" y1="62.7969" y2="62.7969"/><line style="stroke:#181818;stroke-width:1;" x1="543.1304" x2="553.1304" y1="64.7969" y2="64.7969"/><line style="stroke:#181818;stroke-width:1;" x1="553.1304" x2="716.2607" y1="63.2969" y2="63.2969"/><line style="stroke:#181818;stroke-width:1;" x1="553.1304" x2="716.2607" y1="65.2969" y2="65.2969"/><ellipse cx="394.5" cy="107.3906" fill="#000000" rx="2.5" ry="2.5"/><text fill="#000000" font-family="sans-serif" font-size="14" font-weight="700" lengthAdjust="spacing" textLength="68.4141" x="401" y="111.5889">h756960</text><text fill="#000000" font-family="sans-serif" font-size="14" lengthAdjust="spacing" textLength="188.6309" x="473.8643" y="111.5889">- Heder Rodrigues Da Silva</text><ellipse cx="394.5" cy="123.6875" fill="#000000" rx="2.5" ry="2.5"/><text fill="#000000" font-family="sans-serif" font-size="14" font-weight="700" lengthAdjust="spacing" textLength="65.6318" x="401" y="127.8857">r8133g7</text><text fill="#000000" font-family="sans-serif" font-size="14" lengthAdjust="spacing" textLength="220.1787" x="471.082" y="127.8857">- &#205;talo Kevin Rodrigues Da Silva</text><line style="stroke:#181818;stroke-width:1;" x1="380" x2="543.1304" y1="93.5938" y2="93.5938"/><line style="stroke:#181818;stroke-width:1;" x1="380" x2="543.1304" y1="95.5938" y2="95.5938"/><line style="stroke:#181818;stroke-width:1;" x1="543.1304" x2="553.1304" y1="93.0938" y2="93.0938"/><line style="stroke:#181818;stroke-width:1;" x1="543.1304" x2="553.1304" y1="95.0938" y2="95.0938"/><line style="stroke:#181818;stroke-width:1;" x1="553.1304" x2="716.2607" y1="93.5938" y2="93.5938"/><line style="stroke:#181818;stroke-width:1;" x1="553.1304" x2="716.2607" y1="95.5938" y2="95.5938"/><line style="stroke:#181818;stroke-width:1;" x1="380" x2="716.2607" y1="135.1875" y2="135.1875"/><text fill="#000000" font-family="sans-serif" font-size="14" lengthAdjust="spacing" textLength="139.2686" x="389" y="152.1826">Privil&#233;gios SQL-DML</text><line style="stroke:#181818;stroke-width:1;" x1="380" x2="716.2607" y1="159.4844" y2="159.4844"/><ellipse cx="394.5" cy="172.2813" fill="#000000" rx="2.5" ry="2.5"/><text fill="#000000" font-family="sans-serif" font-size="14" lengthAdjust="spacing" textLength="90.248" x="401" y="176.4795">Ler (SELECT)</text><ellipse cx="394.5" cy="188.5781" fill="#000000" rx="2.5" ry="2.5"/><text fill="#000000" font-family="sans-serif" font-size="14" lengthAdjust="spacing" textLength="110.2979" x="401" y="192.7764">Inserir (INSERT)</text><ellipse cx="394.5" cy="204.875" fill="#000000" rx="2.5" ry="2.5"/><text fill="#000000" font-family="sans-serif" font-size="14" lengthAdjust="spacing" textLength="119.4785" x="401" y="209.0732">Alterar (UPDATE)</text><ellipse cx="394.5" cy="221.1719" fill="#000000" rx="2.5" ry="2.5"/><text fill="#000000" font-family="sans-serif" font-size="14" lengthAdjust="spacing" textLength="132.2412" x="401" y="225.3701">Remover (DELETE)</text><line style="stroke:#181818;stroke-width:1;" x1="380" x2="716.2607" y1="232.6719" y2="232.6719"/><text fill="#000000" font-family="sans-serif" font-size="14" lengthAdjust="spacing" textLength="137.9697" x="389" y="249.667">Privil&#233;gios SQL-DDL</text><line style="stroke:#181818;stroke-width:1;" x1="380" x2="716.2607" y1="256.9688" y2="256.9688"/><ellipse cx="394.5" cy="269.7656" fill="#000000" rx="2.5" ry="2.5"/><text fill="#000000" font-family="sans-serif" font-size="14" lengthAdjust="spacing" textLength="152.9404" x="401" y="273.9639">Criar tabela (CREATE)</text><ellipse cx="394.5" cy="286.0625" fill="#000000" rx="2.5" ry="2.5"/><text fill="#000000" font-family="sans-serif" font-size="14" lengthAdjust="spacing" textLength="156.0234" x="401" y="290.2607">Alterar tabela (ALTER)</text><ellipse cx="394.5" cy="302.3594" fill="#000000" rx="2.5" ry="2.5"/><text fill="#000000" font-family="sans-serif" font-size="14" lengthAdjust="spacing" textLength="154.0957" x="401" y="306.5576">Apagar tabela (DROP)</text></g><?plantuml-src xP5DJiCm48NtFeMNRQK8aeeMf58fYYse22LrmWgnc2XkQic9W_Dp2mx2ENenx3G15cN7ajdvU_FcMJDx9JEkiUSMeA4yWC8lo365QFtMyWBmAbrxhZEgw7OeTAVRIbbrgtJ6wuP_IpEB3ykhnStYSdMHhh63xxbDOIhJ8czvZGdWMCWEJhtwsftFy-NGUtnlG2hym3jHdhFqtukqw8GyVkH2rJZUXGvv34_A38ScQXBJa0R9r3mtPSsrC6YpZIdhaIyRhi6WvuZu2RM8yK9rraYCqQ9VOiXNJA256T50oYNWIS3eC6aSFYf-c53M2nNaFpXXJz4KlIAq7sxWLG9QSUu0djDB_zl_y-r_0W00?></g></svg>