<svg xmlns="http://www.w3.org/2000/svg" xmlns:xlink="http://www.w3.org/1999/xlink" contentStyleType="text/css" data-diagram-type="CLASS" height="337px" preserveAspectRatio="none" style="width:337px;height:337px;background:#FFFFFF;" version="1.1" viewBox="0 0 337 337" width="337px" zoomAndPan="magnify"><?plantuml 1.2026.3beta6?><defs/><g><!--entity 17tocantins--><g class="entity" data-qualified-name="17tocantins" data-source-line="1" id="ent0002"><path d="M9.5,7 L50.5,7 A3.75,3.75 0 0 1 53,9.5 L60,28 L321.665,28 A2.5,2.5 0 0 1 324.165,30.5 L324.165,322.3594 A2.5,2.5 0 0 1 321.665,324.8594 L9.5,324.8594 A2.5,2.5 0 0 1 7,322.3594 L7,9.5 A2.5,2.5 0 0 1 9.5,7" fill="#F1F1F1" style="stroke:#181818;stroke-width:0.5;"/><line style="stroke:#181818;stroke-width:0.5;" x1="7" x2="60" y1="28" y2="28"/><line style="stroke:#181818;stroke-width:1;" x1="8" x2="323.165" y1="35" y2="35"/><text fill="#000000" font-family="sans-serif" font-size="14" lengthAdjust="spacing" textLength="64.7295" x="17" y="51.9951">Esquema</text><text fill="#000000" font-family="sans-serif" font-size="14" font-weight="700" lengthAdjust="spacing" textLength="99.1074" x="86.1797" y="51.9951">17-tocantins</text><text fill="#000000" font-family="sans-serif" font-size="14" lengthAdjust="spacing" textLength="42.9297" x="17" y="82.292">Grupo</text><text fill="#000000" font-family="sans-serif" font-size="14" font-weight="700" lengthAdjust="spacing" textLength="44.4268" x="64.3799" y="82.292">Norte</text><line style="stroke:#181818;stroke-width:1;" x1="8" x2="160.5825" y1="64.2969" y2="64.2969"/><line style="stroke:#181818;stroke-width:1;" x1="8" x2="160.5825" y1="66.2969" y2="66.2969"/><line style="stroke:#181818;stroke-width:1;" x1="160.5825" x2="170.5825" y1="63.7969" y2="63.7969"/><line style="stroke:#181818;stroke-width:1;" x1="160.5825" x2="170.5825" y1="65.7969" y2="65.7969"/><line style="stroke:#181818;stroke-width:1;" x1="170.5825" x2="323.165" y1="64.2969" y2="64.2969"/><line style="stroke:#181818;stroke-width:1;" x1="170.5825" x2="323.165" y1="66.2969" y2="66.2969"/><ellipse cx="22.5" cy="108.3906" fill="#000000" rx="2.5" ry="2.5"/><text fill="#000000" font-family="sans-serif" font-size="14" font-weight="700" lengthAdjust="spacing" textLength="61.168" x="29" y="112.5889">f362bf0</text><text fill="#000000" font-family="sans-serif" font-size="14" lengthAdjust="spacing" textLength="173.9883" x="94.6182" y="112.5889">- Bruno Antonio Marques</text><ellipse cx="22.5" cy="124.6875" fill="#000000" rx="2.5" ry="2.5"/><text fill="#000000" font-family="sans-serif" font-size="14" font-weight="700" lengthAdjust="spacing" textLength="61.4072" x="29" y="128.8857">r536fa6</text><text fill="#000000" font-family="sans-serif" font-size="14" lengthAdjust="spacing" textLength="203.3076" x="94.8574" y="128.8857">- Caio Cesar Balbino Da Silva</text><line style="stroke:#181818;stroke-width:1;" x1="8" x2="160.5825" y1="94.5938" y2="94.5938"/><line style="stroke:#181818;stroke-width:1;" x1="8" x2="160.5825" y1="96.5938" y2="96.5938"/><line style="stroke:#181818;stroke-width:1;" x1="160.5825" x2="170.5825" y1="94.0938" y2="94.0938"/><line style="stroke:#181818;stroke-width:1;" x1="160.5825" x2="170.5825" y1="96.0938" y2="96.0938"/><line style="stroke:#181818;stroke-width:1;" x1="170.5825" x2="323.165" y1="94.5938" y2="94.5938"/><line style="stroke:#181818;stroke-width:1;" x1="170.5825" x2="323.165" y1="96.5938" y2="96.5938"/><line style="stroke:#181818;stroke-width:1;" x1="8" x2="323.165" y1="136.1875" y2="136.1875"/><text fill="#000000" font-family="sans-serif" font-size="14" lengthAdjust="spacing" textLength="139.2686" x="17" y="153.1826">Privil&#233;gios SQL-DML</text><line style="stroke:#181818;stroke-width:1;" x1="8" x2="323.165" y1="160.4844" y2="160.4844"/><ellipse cx="22.5" cy="173.2813" fill="#000000" rx="2.5" ry="2.5"/><text fill="#000000" font-family="sans-serif" font-size="14" lengthAdjust="spacing" textLength="90.248" x="29" y="177.4795">Ler (SELECT)</text><ellipse cx="22.5" cy="189.5781" fill="#000000" rx="2.5" ry="2.5"/><text fill="#000000" font-family="sans-serif" font-size="14" lengthAdjust="spacing" textLength="110.2979" x="29" y="193.7764">Inserir (INSERT)</text><ellipse cx="22.5" cy="205.875" fill="#000000" rx="2.5" ry="2.5"/><text fill="#000000" font-family="sans-serif" font-size="14" lengthAdjust="spacing" textLength="119.4785" x="29" y="210.0732">Alterar (UPDATE)</text><ellipse cx="22.5" cy="222.1719" fill="#000000" rx="2.5" ry="2.5"/><text fill="#000000" font-family="sans-serif" font-size="14" lengthAdjust="spacing" textLength="132.2412" x="29" y="226.3701">Remover (DELETE)</text><line style="stroke:#181818;stroke-width:1;" x1="8" x2="323.165" y1="233.6719" y2="233.6719"/><text fill="#000000" font-family="sans-serif" font-size="14" lengthAdjust="spacing" textLength="137.9697" x="17" y="250.667">Privil&#233;gios SQL-DDL</text><line style="stroke:#181818;stroke-width:1;" x1="8" x2="323.165" y1="257.9688" y2="257.9688"/><ellipse cx="22.5" cy="270.7656" fill="#000000" rx="2.5" ry="2.5"/><text fill="#000000" font-family="sans-serif" font-size="14" lengthAdjust="spacing" textLength="152.9404" x="29" y="274.9639">Criar tabela (CREATE)</text><ellipse cx="22.5" cy="287.0625" fill="#000000" rx="2.5" ry="2.5"/><text fill="#000000" font-family="sans-serif" font-size="14" lengthAdjust="spacing" textLength="156.0234" x="29" y="291.2607">Alterar tabela (ALTER)</text><ellipse cx="22.5" cy="303.3594" fill="#000000" rx="2.5" ry="2.5"/><text fill="#000000" font-family="sans-serif" font-size="14" lengthAdjust="spacing" textLength="154.0957" x="29" y="307.5576">Apagar tabela (DROP)</text></g><?plantuml-src TO_1Ri8m38RlVGeV2r8r65gvCAJIH1DIOLtRdIOExfQYI25XJjftsdFinPRImdQPR_a--xVJ6FKX2EPBPzvHEwajl0MHhu3RprQS45RrUhwCRZfu72juelPiUhqtvCGld_QiMSJtTJDRtTLhY613hJQGQ6UqDB13yj5sQAI7HTnWF3Qcw7qgB19iKDNIJp64KgeEXwjoafrKtrz7QIoKBrd4TjbWff3vZuGbptXQJVnpgwqWwT5sN_BYWXBb1Fdiy3LdISLxL8YJwVf1vWTxzCyQTbkJalGH3ckX4CAqu6FIDVngagpYnKMSyVY7i-8vdmI77m00?></g></svg>